<?xml version="1.0" encoding="UTF-8"?>
<svg version="1.1" xmlns="http://www.w3.org/2000/svg" width="480" height="485">
<path d="M0 0 C2.51194332 0.00534559 5.02370672 0.00003405 7.53564453 -0.00634766 C30.63572637 -0.01717057 30.63572637 -0.01717057 38.64892578 2.13037109 C40.35737733 2.39893059 42.06594566 2.66679323 43.77539062 2.92895508 C52.1839016 4.26065126 60.32867552 6.27093455 68.52392578 8.56787109 C69.55670654 8.8561377 70.5894873 9.1444043 71.65356445 9.44140625 C80.52171478 11.97840851 89.24783671 14.84293465 97.58642578 18.81787109 C100.59926874 20.25107916 103.37960717 21.44009733 106.64892578 22.13037109 C106.64892578 22.79037109 106.64892578 23.45037109 106.64892578 24.13037109 C108.29892578 24.46037109 109.94892578 24.79037109 111.64892578 25.13037109 C111.64892578 25.79037109 111.64892578 26.45037109 111.64892578 27.13037109 C112.66019531 27.2521875 112.66019531 27.2521875 113.69189453 27.37646484 C117.54361719 28.35847604 120.56700414 30.16880299 123.96142578 32.19287109 C124.60660156 32.56992187 125.25177734 32.94697266 125.91650391 33.33544922 C127.4977073 34.26074602 129.07384038 35.1946979 130.64892578 36.13037109 C130.64892578 36.79037109 130.64892578 37.45037109 130.64892578 38.13037109 C131.20580078 38.21287109 131.76267578 38.29537109 132.33642578 38.38037109 C135.34148896 39.35498618 137.221474 41.13861579 139.64892578 43.13037109 C140.63892578 43.46037109 141.62892578 43.79037109 142.64892578 44.13037109 C143.64892578 45.13037109 144.64892578 46.13037109 145.64892578 47.13037109 C146.53580078 47.64599609 147.42267578 48.16162109 148.33642578 48.69287109 C149.09955078 49.16724609 149.86267578 49.64162109 150.64892578 50.13037109 C150.64892578 50.79037109 150.64892578 51.45037109 150.64892578 52.13037109 C151.63892578 52.46037109 152.62892578 52.79037109 153.64892578 53.13037109 C155.33148708 54.44358967 156.9988975 55.77650174 158.64892578 57.13037109 C159.30892578 57.46037109 159.96892578 57.79037109 160.64892578 58.13037109 C160.64892578 58.79037109 160.64892578 59.45037109 160.64892578 60.13037109 C161.63892578 60.46037109 162.62892578 60.79037109 163.64892578 61.13037109 C164.33642578 63.19287109 164.33642578 63.19287109 164.64892578 65.13037109 C165.28830078 65.23349609 165.92767578 65.33662109 166.58642578 65.44287109 C167.60736328 65.78318359 167.60736328 65.78318359 168.64892578 66.13037109 C168.97892578 67.12037109 169.30892578 68.11037109 169.64892578 69.13037109 C170.30892578 69.13037109 170.96892578 69.13037109 171.64892578 69.13037109 C171.64892578 69.79037109 171.64892578 70.45037109 171.64892578 71.13037109 C172.63892578 71.13037109 173.62892578 71.13037109 174.64892578 71.13037109 C174.89642578 71.72849609 175.14392578 72.32662109 175.39892578 72.94287109 C176.52872967 75.26330322 176.52872967 75.26330322 178.77392578 76.69287109 C179.39267578 77.16724609 180.01142578 77.64162109 180.64892578 78.13037109 C180.64892578 79.12037109 180.64892578 80.11037109 180.64892578 81.13037109 C181.30892578 81.13037109 181.96892578 81.13037109 182.64892578 81.13037109 C184.02375285 82.76297824 185.35540245 84.43262172 186.64892578 86.13037109 C187.30892578 86.79037109 187.96892578 87.45037109 188.64892578 88.13037109 C191.18483047 91.05050377 193.07343359 93.24579879 193.64892578 97.13037109 C194.30892578 97.13037109 194.96892578 97.13037109 195.64892578 97.13037109 C199.64892578 102.5421358 199.64892578 102.5421358 199.64892578 105.13037109 C200.30892578 105.13037109 200.96892578 105.13037109 201.64892578 105.13037109 C202.30892578 107.11037109 202.96892578 109.09037109 203.64892578 111.13037109 C204.30892578 111.13037109 204.96892578 111.13037109 205.64892578 111.13037109 C220.72426717 137.91706078 220.72426717 137.91706078 224.64892578 149.13037109 C225.11124826 150.38179023 225.57753186 151.63175171 226.04736328 152.88037109 C226.31025146 153.5806543 226.57313965 154.2809375 226.84399414 155.00244141 C227.35466093 156.35244801 227.86932562 157.70095452 228.3894043 159.04736328 C232.26963148 169.11738327 234.87269711 179.0506899 236.78955078 189.66943359 C237.50015422 193.57341702 238.55326174 197.31567139 239.64892578 201.13037109 C240.04832728 203.3518788 240.40240284 205.58199925 240.71142578 207.81787109 C240.86740234 208.91486328 241.02337891 210.01185547 241.18408203 211.14208984 C242.40998478 221.1135539 242.84249514 231.02510153 242.83642578 241.06787109 C242.83634521 242.32825195 242.83626465 243.58863281 242.83618164 244.88720703 C242.77540128 254.9729079 242.1301665 264.90492881 240.91186523 274.91357422 C240.73246884 276.42603407 240.57026613 277.94060803 240.4230957 279.45654297 C239.9594433 284.17772965 239.14238421 288.55171206 237.83642578 293.13037109 C236.4842927 297.94268239 235.26504227 302.75430571 234.19335938 307.63696289 C232.68369767 314.46867921 230.82214957 320.72854215 227.94580078 327.13818359 C225.95509186 331.73120479 224.3820917 336.46375927 222.76220703 341.19677734 C221.64892578 344.13037109 221.64892578 344.13037109 219.64892578 347.13037109 C219.97892578 347.79037109 220.30892578 348.45037109 220.64892578 349.13037109 C219.65892578 349.13037109 218.66892578 349.13037109 217.64892578 349.13037109 C216.65892578 352.10037109 215.66892578 355.07037109 214.64892578 358.13037109 C213.98892578 358.13037109 213.32892578 358.13037109 212.64892578 358.13037109 C212.53419922 358.68466797 212.41947266 359.23896484 212.30126953 359.81005859 C211.55010304 362.48187233 210.45817322 364.7766744 209.21142578 367.25537109 C208.56367187 368.55861328 208.56367187 368.55861328 207.90283203 369.88818359 C206.47047214 372.44947511 205.28297709 373.81334544 202.64892578 375.13037109 C201.95852004 376.78734488 201.29586229 378.4559472 200.64892578 380.13037109 C199.14892578 382.94287109 199.14892578 382.94287109 197.64892578 385.13037109 C196.98892578 385.13037109 196.32892578 385.13037109 195.64892578 385.13037109 C194.98892578 387.11037109 194.32892578 389.09037109 193.64892578 391.13037109 C192.98892578 391.13037109 192.32892578 391.13037109 191.64892578 391.13037109 C190.98892578 392.45037109 190.32892578 393.77037109 189.64892578 395.13037109 C188.98892578 395.13037109 188.32892578 395.13037109 187.64892578 395.13037109 C187.97892578 396.12037109 188.30892578 397.11037109 188.64892578 398.13037109 C187.65892578 398.79037109 186.66892578 399.45037109 185.64892578 400.13037109 C184.65792209 401.20531225 183.70125083 402.31253705 182.77392578 403.44287109 C180.23546511 406.52925088 177.48940782 409.31943344 174.64892578 412.13037109 C173.78912109 413.01337891 172.92931641 413.89638672 172.04345703 414.80615234 C171.19138672 415.67626953 170.33931641 416.54638672 169.46142578 417.44287109 C168.60162109 418.32587891 167.74181641 419.20888672 166.85595703 420.11865234 C164.64892578 422.13037109 164.64892578 422.13037109 162.64892578 422.13037109 C162.31892578 423.12037109 161.98892578 424.11037109 161.64892578 425.13037109 C160.98892578 425.13037109 160.32892578 425.13037109 159.64892578 425.13037109 C159.64892578 425.79037109 159.64892578 426.45037109 159.64892578 427.13037109 C156.68705306 429.30241109 154.14206587 430.96599106 150.64892578 432.13037109 C150.64892578 433.12037109 150.64892578 434.11037109 150.64892578 435.13037109 C149.65892578 435.46037109 148.66892578 435.79037109 147.64892578 436.13037109 C147.31892578 436.79037109 146.98892578 437.45037109 146.64892578 438.13037109 C145.32892578 438.13037109 144.00892578 438.13037109 142.64892578 438.13037109 C142.64892578 438.79037109 142.64892578 439.45037109 142.64892578 440.13037109 C137.23716108 444.13037109 137.23716108 444.13037109 134.64892578 444.13037109 C134.64892578 444.79037109 134.64892578 445.45037109 134.64892578 446.13037109 C128.89892578 449.13037109 128.89892578 449.13037109 126.64892578 449.13037109 C126.64892578 449.79037109 126.64892578 450.45037109 126.64892578 451.13037109 C120.89892578 454.13037109 120.89892578 454.13037109 118.64892578 454.13037109 C118.64892578 454.79037109 118.64892578 455.45037109 118.64892578 456.13037109 C117.67955078 456.52224609 116.71017578 456.91412109 115.71142578 457.31787109 C112.74680822 458.5705264 110.03955149 460.05002137 107.27392578 461.69287109 C103.37791677 463.92872506 99.82023432 464.9748345 95.39892578 465.67333984 C94.82142578 465.82416016 94.24392578 465.97498047 93.64892578 466.13037109 C93.31892578 466.79037109 92.98892578 467.45037109 92.64892578 468.13037109 C90.69547047 468.83161146 88.70882414 469.44134495 86.71142578 470.00537109 C81.58928237 471.50824174 76.68370558 473.21851658 71.77001953 475.29833984 C40.35481973 487.62142927 -3.50934084 489.22982171 -36.35107422 482.13037109 C-37.46998047 481.93958984 -38.58888672 481.74880859 -39.74169922 481.55224609 C-49.1884223 479.90767487 -58.23203025 477.59042351 -67.38183594 474.73583984 C-69.1991298 474.17708845 -71.02672716 473.65214684 -72.85498047 473.13037109 C-79.83266095 471.11515651 -86.24169553 468.49093819 -92.76904297 465.30224609 C-95.18202155 463.99260979 -95.18202155 463.99260979 -97.35107422 464.13037109 C-97.35107422 463.47037109 -97.35107422 462.81037109 -97.35107422 462.13037109 C-98.11419922 461.98599609 -98.87732422 461.84162109 -99.66357422 461.69287109 C-102.35107422 461.13037109 -102.35107422 461.13037109 -105.35107422 460.13037109 C-105.35107422 459.47037109 -105.35107422 458.81037109 -105.35107422 458.13037109 C-106.25857422 457.84162109 -107.16607422 457.55287109 -108.10107422 457.25537109 C-110.67837352 456.36322903 -112.92730886 455.34225377 -115.35107422 454.13037109 C-116.01107422 454.13037109 -116.67107422 454.13037109 -117.35107422 454.13037109 C-118.35107422 453.13037109 -119.35107422 452.13037109 -120.35107422 451.13037109 C-121.34107422 450.80037109 -122.33107422 450.47037109 -123.35107422 450.13037109 C-123.35107422 449.47037109 -123.35107422 448.81037109 -123.35107422 448.13037109 C-124.29982422 447.82099609 -125.24857422 447.51162109 -126.22607422 447.19287109 C-129.35107422 446.13037109 -129.35107422 446.13037109 -131.35107422 445.13037109 C-131.35107422 444.47037109 -131.35107422 443.81037109 -131.35107422 443.13037109 C-132.12451172 442.79005859 -132.12451172 442.79005859 -132.91357422 442.44287109 C-135.70062153 440.94215331 -138.1394137 439.14892253 -140.66748047 437.25146484 C-142.46994187 435.94485931 -142.46994187 435.94485931 -145.35107422 435.13037109 C-145.47482422 434.49099609 -145.59857422 433.85162109 -145.72607422 433.19287109 C-145.93232422 432.51224609 -146.13857422 431.83162109 -146.35107422 431.13037109 C-148.84141808 429.83376676 -148.84141808 429.83376676 -151.35107422 429.13037109 C-151.35107422 428.47037109 -151.35107422 427.81037109 -151.35107422 427.13037109 C-152.67107422 426.80037109 -153.99107422 426.47037109 -155.35107422 426.13037109 C-155.35107422 425.47037109 -155.35107422 424.81037109 -155.35107422 424.13037109 C-156.34107422 423.80037109 -157.33107422 423.47037109 -158.35107422 423.13037109 C-159.69530761 421.47248324 -161.02725905 419.80460792 -162.35107422 418.13037109 C-163.71232422 417.04755859 -163.71232422 417.04755859 -165.10107422 415.94287109 C-165.84357422 415.34474609 -166.58607422 414.74662109 -167.35107422 414.13037109 C-167.35107422 413.47037109 -167.35107422 412.81037109 -167.35107422 412.13037109 C-168.49576172 411.79005859 -168.49576172 411.79005859 -169.66357422 411.44287109 C-172.92637692 409.84940931 -173.81368131 408.36698774 -175.35107422 405.13037109 C-175.35107422 404.47037109 -175.35107422 403.81037109 -175.35107422 403.13037109 C-176.01107422 403.13037109 -176.67107422 403.13037109 -177.35107422 403.13037109 C-182.35107422 397.65418062 -182.35107422 397.65418062 -182.35107422 395.13037109 C-183.01107422 395.13037109 -183.67107422 395.13037109 -184.35107422 395.13037109 C-185.82373047 393.52099609 -185.82373047 393.52099609 -187.41357422 391.38037109 C-188.20441406 390.33623047 -188.20441406 390.33623047 -189.01123047 389.27099609 C-190.35107422 387.13037109 -190.35107422 387.13037109 -190.84716797 384.92724609 C-191.09660156 384.03779297 -191.09660156 384.03779297 -191.35107422 383.13037109 C-192.34107422 382.80037109 -193.33107422 382.47037109 -194.35107422 382.13037109 C-196.34503679 379.46953141 -198.35107422 376.51794785 -198.35107422 373.13037109 C-199.01107422 373.13037109 -199.67107422 373.13037109 -200.35107422 373.13037109 C-200.35107422 372.47037109 -200.35107422 371.81037109 -200.35107422 371.13037109 C-201.01107422 370.80037109 -201.67107422 370.47037109 -202.35107422 370.13037109 C-203.62869632 367.77306834 -204.819145 365.4212047 -205.97607422 363.00537109 C-208.37761303 358.06675395 -210.83882109 353.19576383 -213.51806641 348.40185547 C-217.3142127 341.57969017 -220.04855248 334.83437534 -222.34326172 327.37255859 C-223.22029712 324.55108813 -224.24680772 321.8672385 -225.35107422 319.13037109 C-225.7197851 317.47117214 -226.06389096 315.8056068 -226.35107422 314.13037109 C-226.68107422 314.13037109 -227.01107422 314.13037109 -227.35107422 314.13037109 C-227.95850067 311.75616617 -228.56199574 309.3810592 -229.16357422 307.00537109 C-229.41204102 306.03664063 -229.41204102 306.03664063 -229.66552734 305.04833984 C-230.24644714 302.74658214 -230.80256218 300.44007856 -231.35107422 298.13037109 C-231.59752686 297.09912109 -231.84397949 296.06787109 -232.09790039 295.00537109 C-234.10869358 286.17365197 -235.25478817 277.39639567 -236.03857422 268.38037109 C-236.13288223 267.32739334 -236.13288223 267.32739334 -236.22909546 266.25314331 C-238.86674257 236.56834397 -236.66066316 207.06256606 -229.35107422 178.13037109 C-229.11517578 177.17646484 -228.87927734 176.22255859 -228.63623047 175.23974609 C-227.23099505 169.80110523 -225.47876814 164.65104512 -223.31982422 159.46630859 C-222.44175175 157.34902094 -221.63425687 155.22162338 -220.85107422 153.06787109 C-219.20857972 148.66458796 -217.30592137 144.40275717 -215.35107422 140.13037109 C-214.93970215 139.21602295 -214.93970215 139.21602295 -214.52001953 138.28320312 C-213.59533863 136.22918259 -212.66152319 134.17950737 -211.72607422 132.13037109 C-211.42475586 131.45868896 -211.1234375 130.78700684 -210.81298828 130.0949707 C-208.5791531 125.24441054 -208.5791531 125.24441054 -206.35107422 124.13037109 C-206.06232422 123.26412109 -205.77357422 122.39787109 -205.47607422 121.50537109 C-204.16887799 117.58378241 -202.59765836 114.60236477 -200.35107422 111.13037109 C-199.36107422 110.80037109 -198.37107422 110.47037109 -197.35107422 110.13037109 C-197.35107422 109.14037109 -197.35107422 108.15037109 -197.35107422 107.13037109 C-196.69107422 107.13037109 -196.03107422 107.13037109 -195.35107422 107.13037109 C-195.02107422 105.48037109 -194.69107422 103.83037109 -194.35107422 102.13037109 C-193.69107422 102.13037109 -193.03107422 102.13037109 -192.35107422 102.13037109 C-192.35107422 101.14037109 -192.35107422 100.15037109 -192.35107422 99.13037109 C-191.06290078 97.75335811 -189.72302996 96.42392936 -188.35107422 95.13037109 C-187.81482422 94.38787109 -187.27857422 93.64537109 -186.72607422 92.88037109 C-186.27232422 92.30287109 -185.81857422 91.72537109 -185.35107422 91.13037109 C-184.69107422 91.13037109 -184.03107422 91.13037109 -183.35107422 91.13037109 C-182.69107422 89.48037109 -182.03107422 87.83037109 -181.35107422 86.13037109 C-180.69107422 86.13037109 -180.03107422 86.13037109 -179.35107422 86.13037109 C-179.07908203 85.55158203 -178.80708984 84.97279297 -178.52685547 84.37646484 C-175.30277548 78.21750806 -170.07168212 70.37057373 -163.35107422 68.13037109 C-163.35107422 67.47037109 -163.35107422 66.81037109 -163.35107422 66.13037109 C-161.03857422 63.50537109 -161.03857422 63.50537109 -158.35107422 61.13037109 C-157.36107422 61.13037109 -156.37107422 61.13037109 -155.35107422 61.13037109 C-155.35107422 60.47037109 -155.35107422 59.81037109 -155.35107422 59.13037109 C-154.14451172 58.72818359 -154.14451172 58.72818359 -152.91357422 58.31787109 C-152.06794922 57.92599609 -151.22232422 57.53412109 -150.35107422 57.13037109 C-150.02107422 56.14037109 -149.69107422 55.15037109 -149.35107422 54.13037109 C-145.90662977 51.13037109 -145.90662977 51.13037109 -143.35107422 51.13037109 C-143.35107422 50.47037109 -143.35107422 49.81037109 -143.35107422 49.13037109 C-142.69107422 49.13037109 -142.03107422 49.13037109 -141.35107422 49.13037109 C-141.35107422 48.47037109 -141.35107422 47.81037109 -141.35107422 47.13037109 C-140.36107422 47.13037109 -139.37107422 47.13037109 -138.35107422 47.13037109 C-138.02107422 46.14037109 -137.69107422 45.15037109 -137.35107422 44.13037109 C-134.28857422 42.94287109 -134.28857422 42.94287109 -131.35107422 42.13037109 C-131.35107422 41.47037109 -131.35107422 40.81037109 -131.35107422 40.13037109 C-129.71924315 39.0744804 -128.04314423 38.08675849 -126.35107422 37.13037109 C-125.31982422 36.40849609 -124.28857422 35.68662109 -123.22607422 34.94287109 C-120.35107422 33.13037109 -120.35107422 33.13037109 -117.35107422 33.13037109 C-117.35107422 32.47037109 -117.35107422 31.81037109 -117.35107422 31.13037109 C-115.41737191 30.1230471 -113.47897116 29.12473821 -111.53857422 28.13037109 C-110.45962891 27.57349609 -109.38068359 27.01662109 -108.26904297 26.44287109 C-105.35107422 25.13037109 -105.35107422 25.13037109 -102.35107422 25.13037109 C-102.35107422 24.47037109 -102.35107422 23.81037109 -102.35107422 23.13037109 C-101.42294922 22.94474609 -101.42294922 22.94474609 -100.47607422 22.75537109 C-98.1598659 22.25839753 -98.1598659 22.25839753 -96.35107422 20.13037109 C-93.72607422 20.00537109 -93.72607422 20.00537109 -91.35107422 20.13037109 C-91.35107422 19.47037109 -91.35107422 18.81037109 -91.35107422 18.13037109 C-86.68837755 16.4523309 -82.02162795 14.78638484 -77.35107422 13.13037109 C-76.48740234 12.82357422 -75.62373047 12.51677734 -74.73388672 12.20068359 C-70.43133238 10.71546021 -66.17015304 9.60849071 -61.71362305 8.68969727 C-59.48843445 8.16289071 -57.42747546 7.48199996 -55.28076172 6.70068359 C-49.93466435 4.89079543 -44.53420991 3.92681269 -38.97607422 3.00537109 C-38.01185547 2.83650391 -37.04763672 2.66763672 -36.05419922 2.49365234 C-23.99519904 0.44071263 -12.20439846 -0.03084915 0 0 Z M-19.35107422 15.13037109 C-21.34840244 15.30910927 -23.34923315 15.4499742 -25.35107422 15.56787109 C-35.46353585 15.65305305 -35.46353585 15.65305305 -44.35107422 19.13037109 C-46.70284189 19.62267051 -49.05043638 20.07514581 -51.41357422 20.50537109 C-57.00185156 21.56396668 -62.0865195 22.9855525 -67.35107422 25.13037109 C-69.00780059 25.51003755 -70.67177667 25.86798085 -72.35107422 26.13037109 C-72.35107422 26.79037109 -72.35107422 27.45037109 -72.35107422 28.13037109 C-73.06650391 28.08912109 -73.78193359 28.04787109 -74.51904297 28.00537109 C-77.65927008 28.14397422 -79.7831877 28.90140618 -82.66357422 30.13037109 C-83.54658203 30.50162109 -84.42958984 30.87287109 -85.33935547 31.25537109 C-86.00322266 31.54412109 -86.66708984 31.83287109 -87.35107422 32.13037109 C-87.35107422 32.79037109 -87.35107422 33.45037109 -87.35107422 34.13037109 C-88.46482422 34.34693359 -88.46482422 34.34693359 -89.60107422 34.56787109 C-91.87135161 35.03224601 -94.10866901 35.54900678 -96.35107422 36.13037109 C-96.35107422 36.79037109 -96.35107422 37.45037109 -96.35107422 38.13037109 C-96.94919922 38.27474609 -97.54732422 38.41912109 -98.16357422 38.56787109 C-99.91257826 39.01761499 -101.63784445 39.5592945 -103.35107422 40.13037109 C-103.35107422 40.79037109 -103.35107422 41.45037109 -103.35107422 42.13037109 C-104.23859375 42.38560547 -104.23859375 42.38560547 -105.14404297 42.64599609 C-110.0367509 44.14653295 -113.45870572 45.6959283 -117.35107422 49.13037109 C-118.83607422 49.62537109 -118.83607422 49.62537109 -120.35107422 50.13037109 C-120.35107422 50.79037109 -120.35107422 51.45037109 -120.35107422 52.13037109 C-121.34107422 52.13037109 -122.33107422 52.13037109 -123.35107422 52.13037109 C-123.35107422 52.79037109 -123.35107422 53.45037109 -123.35107422 54.13037109 C-124.55763672 54.53255859 -124.55763672 54.53255859 -125.78857422 54.94287109 C-127.05701172 55.53068359 -127.05701172 55.53068359 -128.35107422 56.13037109 C-128.68107422 57.12037109 -129.01107422 58.11037109 -129.35107422 59.13037109 C-130.07294922 59.19224609 -130.79482422 59.25412109 -131.53857422 59.31787109 C-135.20488021 60.37702616 -136.79321761 62.36512071 -139.35107422 65.13037109 C-140.34107422 65.62537109 -140.34107422 65.62537109 -141.35107422 66.13037109 C-141.35107422 66.79037109 -141.35107422 67.45037109 -141.35107422 68.13037109 C-142.22119141 68.52482422 -142.22119141 68.52482422 -143.10888672 68.92724609 C-149.2914899 72.24474048 -154.601715 78.02480993 -159.35107422 83.13037109 C-159.35107422 83.79037109 -159.35107422 84.45037109 -159.35107422 85.13037109 C-160.34107422 85.46037109 -161.33107422 85.79037109 -162.35107422 86.13037109 C-162.35107422 86.79037109 -162.35107422 87.45037109 -162.35107422 88.13037109 C-163.01107422 88.13037109 -163.67107422 88.13037109 -164.35107422 88.13037109 C-164.35107422 88.79037109 -164.35107422 89.45037109 -164.35107422 90.13037109 C-165.01107422 90.13037109 -165.67107422 90.13037109 -166.35107422 90.13037109 C-166.35107422 90.79037109 -166.35107422 91.45037109 -166.35107422 92.13037109 C-167.01107422 92.13037109 -167.67107422 92.13037109 -168.35107422 92.13037109 C-168.35107422 93.12037109 -168.35107422 94.11037109 -168.35107422 95.13037109 C-169.01107422 95.13037109 -169.67107422 95.13037109 -170.35107422 95.13037109 C-171.01107422 96.78037109 -171.67107422 98.43037109 -172.35107422 100.13037109 C-173.01107422 100.13037109 -173.67107422 100.13037109 -174.35107422 100.13037109 C-174.35107422 101.12037109 -174.35107422 102.11037109 -174.35107422 103.13037109 C-175.01107422 103.13037109 -175.67107422 103.13037109 -176.35107422 103.13037109 C-177.86946535 105.11805321 -177.86946535 105.11805321 -179.35107422 107.56787109 C-182.14150702 112.02558749 -182.14150702 112.02558749 -184.35107422 113.13037109 C-185.37285565 114.85462726 -186.39237515 116.58119703 -187.35107422 118.34130859 C-188.27014695 119.98558714 -189.30618238 121.56303333 -190.35107422 123.13037109 C-190.35107422 124.12037109 -190.35107422 125.11037109 -190.35107422 126.13037109 C-191.01107422 126.13037109 -191.67107422 126.13037109 -192.35107422 126.13037109 C-193.81170272 128.77776026 -194.35107422 130.02485444 -194.35107422 133.13037109 C-195.34107422 133.62537109 -195.34107422 133.62537109 -196.35107422 134.13037109 C-198.72087435 137.08414608 -198.72087435 137.08414608 -198.35107422 141.13037109 C-199.01107422 141.13037109 -199.67107422 141.13037109 -200.35107422 141.13037109 C-202.83455249 147.48991506 -202.83455249 147.48991506 -204.35107422 154.13037109 C-205.01107422 154.13037109 -205.67107422 154.13037109 -206.35107422 154.13037109 C-206.53283203 154.77103516 -206.71458984 155.41169922 -206.90185547 156.07177734 C-208.20582879 160.55878299 -209.63240588 164.78353227 -211.53466797 169.05615234 C-215.59047703 179.36062417 -217.44746124 190.27856462 -219.35107422 201.13037109 C-219.8423723 203.62608673 -220.34828133 206.11725743 -220.87812805 208.60508728 C-222.26236594 215.48971177 -222.63041703 222.06162045 -222.58154297 229.07177734 C-222.58108475 230.16127182 -222.58062653 231.2507663 -222.58015442 232.37327576 C-222.57715631 234.65307722 -222.56934429 236.93287709 -222.55688477 239.21264648 C-222.53845994 242.71459116 -222.53637659 246.21627329 -222.53662109 249.71826172 C-222.53171123 251.94026923 -222.52588525 254.16227494 -222.51904297 256.38427734 C-222.51793015 257.43313614 -222.51681732 258.48199493 -222.51567078 259.56263733 C-222.50929092 260.52801926 -222.50291107 261.49340118 -222.49633789 262.48803711 C-222.49252609 263.33866226 -222.48871429 264.18928741 -222.48478699 265.06568909 C-222.48120402 267.19384063 -222.48120402 267.19384063 -221.35107422 269.13037109 C-221.1932505 270.89858131 -221.07467682 272.67037195 -220.97607422 274.44287109 C-220.44586332 281.22314379 -219.04349962 287.55488225 -217.35107422 294.13037109 C-217.06393555 295.26829102 -217.06393555 295.26829102 -216.77099609 296.42919922 C-216.13795057 298.93558323 -215.49623961 301.43958087 -214.85107422 303.94287109 C-214.5489502 305.12538452 -214.5489502 305.12538452 -214.24072266 306.33178711 C-213.07272769 310.78207292 -211.70299884 315.06650903 -210.03808594 319.35571289 C-209.17286119 321.59072308 -208.4106827 323.85346907 -207.66357422 326.13037109 C-207.28652344 327.27505859 -207.28652344 327.27505859 -206.90185547 328.44287109 C-206.72009766 328.99974609 -206.53833984 329.55662109 -206.35107422 330.13037109 C-205.69107422 330.13037109 -205.03107422 330.13037109 -204.35107422 330.13037109 C-204.26857422 330.95537109 -204.18607422 331.78037109 -204.10107422 332.63037109 C-203.32925127 336.23221152 -202.10902217 338.86896603 -200.40576172 342.09521484 C-198.88006331 345.0392477 -197.62600601 348.07053479 -196.35107422 351.13037109 C-195.69107422 351.13037109 -195.03107422 351.13037109 -194.35107422 351.13037109 C-194.08939453 351.99919922 -193.82771484 352.86802734 -193.55810547 353.76318359 C-191.57325786 359.30020184 -188.38864408 364.11576223 -185.35107422 369.13037109 C-184.85607422 369.97341797 -184.36107422 370.81646484 -183.85107422 371.68505859 C-182.74385036 373.5370223 -181.55588873 375.34036097 -180.35107422 377.13037109 C-179.69107422 377.13037109 -179.03107422 377.13037109 -178.35107422 377.13037109 C-177.97982422 378.21318359 -177.97982422 378.21318359 -177.60107422 379.31787109 C-176.2283783 382.40643691 -174.62754126 384.64048527 -172.35107422 387.13037109 C-171.69107422 387.13037109 -171.03107422 387.13037109 -170.35107422 387.13037109 C-169.94888672 388.33693359 -169.94888672 388.33693359 -169.53857422 389.56787109 C-169.14669922 390.41349609 -168.75482422 391.25912109 -168.35107422 392.13037109 C-167.36107422 392.46037109 -166.37107422 392.79037109 -165.35107422 393.13037109 C-164.6648739 394.45375741 -164.00320961 395.78987057 -163.35107422 397.13037109 C-161.79063317 399.27205026 -160.14158093 401.16081372 -158.35107422 403.13037109 C-157.69107422 403.13037109 -157.03107422 403.13037109 -156.35107422 403.13037109 C-156.35107422 403.79037109 -156.35107422 404.45037109 -156.35107422 405.13037109 C-154.08033813 407.81780616 -154.08033813 407.81780616 -151.35107422 410.13037109 C-150.36107422 410.13037109 -149.37107422 410.13037109 -148.35107422 410.13037109 C-147.85607422 411.61537109 -147.85607422 411.61537109 -147.35107422 413.13037109 C-146.69107422 413.13037109 -146.03107422 413.13037109 -145.35107422 413.13037109 C-145.35107422 413.79037109 -145.35107422 414.45037109 -145.35107422 415.13037109 C-144.08050897 416.81769154 -144.08050897 416.81769154 -142.35107422 418.13037109 C-141.36107422 418.13037109 -140.37107422 418.13037109 -139.35107422 418.13037109 C-138.85607422 419.61537109 -138.85607422 419.61537109 -138.35107422 421.13037109 C-137.69107422 421.13037109 -137.03107422 421.13037109 -136.35107422 421.13037109 C-136.35107422 421.79037109 -136.35107422 422.45037109 -136.35107422 423.13037109 C-132.74326313 426.19106858 -132.74326313 426.19106858 -128.28857422 427.06787109 C-125.84795193 425.88692482 -123.58103272 424.67895339 -121.35107422 423.13037109 C-121.35107422 422.47037109 -121.35107422 421.81037109 -121.35107422 421.13037109 C-119.35107422 420.13037109 -117.35107422 419.13037109 -115.35107422 418.13037109 C-115.35107422 417.47037109 -115.35107422 416.81037109 -115.35107422 416.13037109 C-114.62919922 415.88287109 -113.90732422 415.63537109 -113.16357422 415.38037109 C-107.51858615 412.87148751 -104.198552 408.84353138 -100.35107422 404.13037109 C-99.42294922 403.22287109 -98.49482422 402.31537109 -97.53857422 401.38037109 C-95.11871475 399.41438905 -95.11871475 399.41438905 -95.35107422 397.13037109 C-94.58794922 396.88287109 -93.82482422 396.63537109 -93.03857422 396.38037109 C-90.09026477 395.00906437 -88.9927289 393.89526319 -87.35107422 391.13037109 C-87.35107422 390.47037109 -87.35107422 389.81037109 -87.35107422 389.13037109 C-86.69107422 389.13037109 -86.03107422 389.13037109 -85.35107422 389.13037109 C-82.39397604 385.93013695 -82.39397604 385.93013695 -80.85107422 381.94287109 C-80.68607422 381.34474609 -80.52107422 380.74662109 -80.35107422 380.13037109 C-79.02639676 379.4466666 -77.69243789 378.78072924 -76.35107422 378.13037109 C-75.25941147 376.19706507 -75.25941147 376.19706507 -74.35107422 374.13037109 C-73.35107422 373.13037109 -72.35107422 372.13037109 -71.35107422 371.13037109 C-71.35107422 370.47037109 -71.35107422 369.81037109 -71.35107422 369.13037109 C-70.69107422 368.80037109 -70.03107422 368.47037109 -69.35107422 368.13037109 C-68.69107422 367.47037109 -68.03107422 366.81037109 -67.35107422 366.13037109 C-67.35107422 365.14037109 -67.35107422 364.15037109 -67.35107422 363.13037109 C-66.69107422 362.80037109 -66.03107422 362.47037109 -65.35107422 362.13037109 C-64.26062197 360.68679312 -63.2251474 359.20113375 -62.22607422 357.69287109 C-61.68724609 356.88978516 -61.14841797 356.08669922 -60.59326172 355.25927734 C-59.18308437 353.25326506 -59.18308437 353.25326506 -59.35107422 351.13037109 C-58.69107422 351.13037109 -58.03107422 351.13037109 -57.35107422 351.13037109 C-56.51288264 349.50787169 -55.68066262 347.88228613 -54.85107422 346.25537109 C-54.38701172 345.35044922 -53.92294922 344.44552734 -53.44482422 343.51318359 C-52.21201833 341.2644025 -52.21201833 341.2644025 -52.35107422 339.13037109 C-51.69107422 339.13037109 -51.03107422 339.13037109 -50.35107422 339.13037109 C-49.93857422 338.14037109 -49.52607422 337.15037109 -49.10107422 336.13037109 C-46.92675692 331.06703034 -44.40434721 326.18340856 -41.89013672 321.28271484 C-38.10518018 313.82830514 -34.52377679 306.29225132 -31.03857422 298.69287109 C-30.60593262 297.75749512 -30.17329102 296.82211914 -29.72753906 295.85839844 C-27.98544908 292.03046618 -26.29931682 288.29692182 -25.19482422 284.23193359 C-24.25773375 280.78725845 -22.82625514 278.09261079 -21.05810547 275.02490234 C-20.21293117 273.14266131 -20.21293117 273.14266131 -20.45654297 271.05615234 C-21.70062304 268.37784895 -23.2295801 267.79123055 -25.85107422 266.50537109 C-30.25844264 264.31563425 -30.25844264 264.31563425 -31.35107422 262.13037109 C-32.01107422 262.13037109 -32.67107422 262.13037109 -33.35107422 262.13037109 C-33.35107422 261.14037109 -33.35107422 260.15037109 -33.35107422 259.13037109 C-34.66237344 257.7753619 -35.99799109 256.44365766 -37.35107422 255.13037109 C-38.60107422 252.88037109 -38.60107422 252.88037109 -39.35107422 251.13037109 C-40.01107422 251.13037109 -40.67107422 251.13037109 -41.35107422 251.13037109 C-41.68107422 249.81037109 -42.01107422 248.49037109 -42.35107422 247.13037109 C-43.01107422 247.13037109 -43.67107422 247.13037109 -44.35107422 247.13037109 C-45.34107422 243.66537109 -45.34107422 243.66537109 -46.35107422 240.13037109 C-47.01107422 240.13037109 -47.67107422 240.13037109 -48.35107422 240.13037109 C-48.56763672 238.98568359 -48.56763672 238.98568359 -48.78857422 237.81787109 C-49.31433362 235.04864201 -49.31433362 235.04864201 -50.35107422 232.13037109 C-51.01107422 232.13037109 -51.67107422 232.13037109 -52.35107422 232.13037109 C-52.75326172 230.21224609 -52.75326172 230.21224609 -53.16357422 228.25537109 C-54.12862867 223.83570142 -55.42677317 219.58207564 -56.86279297 215.29443359 C-57.35107422 213.13037109 -57.35107422 213.13037109 -56.35107422 210.13037109 C-55.17544922 209.69724609 -55.17544922 209.69724609 -53.97607422 209.25537109 C-50.67491837 207.84059002 -50.01820922 206.22647896 -48.35107422 203.13037109 C-47.69107422 202.80037109 -47.03107422 202.47037109 -46.35107422 202.13037109 C-44.53857422 202.80224609 -44.53857422 202.80224609 -42.35107422 203.88037109 C-38.42747377 205.70270685 -34.58322268 207.03020384 -30.42919922 208.21240234 C-25.53100858 209.67315717 -20.69975978 211.33359348 -15.85913086 212.97363281 C-11.38435108 214.48165653 -6.90220148 215.87052262 -2.35107422 217.13037109 C-0.06093769 213.69516629 -0.17264449 212.14504009 -0.35107422 208.13037109 C-0.90794922 207.88802734 -1.46482422 207.64568359 -2.03857422 207.39599609 C-6.41396753 205.47437066 -10.73792034 203.49580588 -14.99169922 201.31787109 C-16.86432809 200.3753559 -18.7534971 199.4657157 -20.64794922 198.56787109 C-27.11229831 195.47962178 -32.97235628 192.22893483 -38.52294922 187.63427734 C-41.83351045 184.91084556 -45.50502336 182.98217336 -49.35107422 181.13037109 C-49.35107422 180.47037109 -49.35107422 179.81037109 -49.35107422 179.13037109 C-50.34107422 179.13037109 -51.33107422 179.13037109 -52.35107422 179.13037109 C-52.68107422 178.14037109 -53.01107422 177.15037109 -53.35107422 176.13037109 C-55.07132761 174.31075304 -55.07132761 174.31075304 -57.16357422 172.56787109 C-57.85064453 171.96845703 -58.53771484 171.36904297 -59.24560547 170.75146484 C-61.27607222 169.07922285 -61.27607222 169.07922285 -63.53466797 168.04833984 C-65.89079576 166.85760859 -66.3910084 165.53053565 -67.35107422 163.13037109 C-68.01107422 163.13037109 -68.67107422 163.13037109 -69.35107422 163.13037109 C-69.61919922 162.53224609 -69.88732422 161.93412109 -70.16357422 161.31787109 C-71.42656659 158.99130619 -72.23791872 157.72480206 -74.35107422 156.13037109 C-77.4018429 155.69861873 -77.4018429 155.69861873 -80.88232422 155.80224609 C-82.16751953 155.80740234 -83.45271484 155.81255859 -84.77685547 155.81787109 C-85.77966553 155.83333984 -85.77966553 155.83333984 -86.80273438 155.84912109 C-88.84377369 155.88025972 -90.88403969 155.89009225 -92.92529297 155.89599609 C-99.74589579 155.7923802 -99.74589579 155.7923802 -106.35107422 157.13037109 C-108.24320159 157.35216895 -110.13991894 157.53651125 -112.03857422 157.69287109 C-113.03244141 157.77666016 -114.02630859 157.86044922 -115.05029297 157.94677734 C-115.80955078 158.00736328 -116.56880859 158.06794922 -117.35107422 158.13037109 C-117.69334935 156.61152519 -118.02438636 155.09014577 -118.35107422 153.56787109 C-118.53669922 152.72095703 -118.72232422 151.87404297 -118.91357422 151.00146484 C-119.41974736 147.67970362 -119.41742913 144.48544131 -119.35107422 141.13037109 C-97.74367839 138.94899256 -97.74367839 138.94899256 -88.35107422 138.13037109 C-89.34107422 136.15037109 -90.33107422 134.17037109 -91.35107422 132.13037109 C-92.01107422 132.13037109 -92.67107422 132.13037109 -93.35107422 132.13037109 C-93.35107422 131.14037109 -93.35107422 130.15037109 -93.35107422 129.13037109 C-94.01107422 129.13037109 -94.67107422 129.13037109 -95.35107422 129.13037109 C-95.66044922 127.98568359 -95.66044922 127.98568359 -95.97607422 126.81787109 C-97.58274983 122.50905923 -99.72921791 118.70006645 -102.01123047 114.71630859 C-103.17690031 112.46653182 -103.88107072 110.60224133 -104.35107422 108.13037109 C-105.01107422 108.13037109 -105.67107422 108.13037109 -106.35107422 108.13037109 C-106.47740234 107.41107422 -106.60373047 106.69177734 -106.73388672 105.95068359 C-107.34440476 103.16084798 -108.20078421 100.66794593 -109.22607422 98.00537109 C-111.04101281 93.14793544 -112.4639362 88.27182047 -113.73779297 83.24755859 C-114.15688359 81.16374578 -114.15688359 81.16374578 -115.35107422 80.13037109 C-115.71868153 77.80219146 -116.05349003 75.46853259 -116.35107422 73.13037109 C-110.54341126 71.6246807 -105.35288792 70.91212332 -99.35107422 71.13037109 C-99.24794922 72.12037109 -99.14482422 73.11037109 -99.03857422 74.13037109 C-98.54016457 77.63327835 -97.48926403 80.65610452 -96.18310547 83.93115234 C-94.67315054 87.92225387 -93.53495939 92.0329529 -92.35107422 96.13037109 C-91.69107422 96.13037109 -91.03107422 96.13037109 -90.35107422 96.13037109 C-90.02107422 96.79037109 -89.69107422 97.45037109 -89.35107422 98.13037109 C-89.35107422 97.14037109 -89.35107422 96.15037109 -89.35107422 95.13037109 C-88.69107422 95.13037109 -88.03107422 95.13037109 -87.35107422 95.13037109 C-87.35107422 94.47037109 -87.35107422 93.81037109 -87.35107422 93.13037109 C-86.69107422 93.13037109 -86.03107422 93.13037109 -85.35107422 93.13037109 C-75.60733225 81.63467552 -71.28056219 68.11417616 -71.35107422 53.13037109 C-71.02316765 51.79569279 -70.68955779 50.46240629 -70.35107422 49.13037109 C-70.21178066 47.76360477 -70.10742121 46.3929144 -70.03466797 45.02099609 C-69.99277344 44.26689453 -69.95087891 43.51279297 -69.90771484 42.73583984 C-69.86839844 41.95853516 -69.82908203 41.18123047 -69.78857422 40.38037109 C-69.72379883 39.19121094 -69.72379883 39.19121094 -69.65771484 37.97802734 C-69.5520443 36.02899295 -69.45109456 34.07970361 -69.35107422 32.13037109 C-68.38169922 32.29537109 -67.41232422 32.46037109 -66.41357422 32.63037109 C-62.05619659 33.26433382 -57.74476718 33.2200383 -53.35107422 33.13037109 C-53.32219608 36.6095205 -53.30431735 40.0886394 -53.28857422 43.56787109 C-53.28019531 44.56109375 -53.27181641 45.55431641 -53.26318359 46.57763672 C-53.25996094 47.521875 -53.25673828 48.46611328 -53.25341797 49.43896484 C-53.24818115 50.31351318 -53.24294434 51.18806152 -53.23754883 52.08911133 C-53.35107422 54.13037109 -53.35107422 54.13037109 -54.35107422 55.13037109 C-54.48699443 57.02419274 -54.58348362 58.92086814 -54.66357422 60.81787109 C-55.52844164 72.64202865 -59.28012249 82.71252559 -64.76513672 93.07177734 C-66.13910824 95.72157957 -67.30133291 98.33972217 -68.35107422 101.13037109 C-69.01107422 101.13037109 -69.67107422 101.13037109 -70.35107422 101.13037109 C-72.74927727 103.76721856 -72.74927727 103.76721856 -73.35107422 107.13037109 C-74.34107422 107.13037109 -75.33107422 107.13037109 -76.35107422 107.13037109 C-78.08050897 108.44305065 -78.08050897 108.44305065 -79.35107422 110.13037109 C-79.35107422 110.79037109 -79.35107422 111.45037109 -79.35107422 112.13037109 C-80.01107422 112.13037109 -80.67107422 112.13037109 -81.35107422 112.13037109 C-82.13221459 113.86778672 -82.13221459 113.86778672 -82.35107422 116.13037109 C-81.24249525 118.78950424 -81.24249525 118.78950424 -79.53857422 121.38037109 C-78.72453125 122.71841797 -78.72453125 122.71841797 -77.89404297 124.08349609 C-77.13027344 125.09669922 -77.13027344 125.09669922 -76.35107422 126.13037109 C-75.69107422 126.13037109 -75.03107422 126.13037109 -74.35107422 126.13037109 C-74.16544922 127.05849609 -74.16544922 127.05849609 -73.97607422 128.00537109 C-73.47910066 130.32157941 -73.47910066 130.32157941 -71.35107422 132.13037109 C-70.48533429 133.28847566 -69.6328672 134.45653926 -68.78857422 135.63037109 C-63.40892101 142.85147039 -57.50377393 149.62829439 -50.35107422 155.13037109 C-50.52896484 154.15970703 -50.70685547 153.18904297 -50.89013672 152.18896484 C-53.03345399 136.99124363 -48.34531365 118.60426655 -40.26904297 105.73193359 C-39.18531491 104.14883854 -39.18531491 104.14883854 -39.35107422 102.13037109 C-38.69107422 102.13037109 -38.03107422 102.13037109 -37.35107422 102.13037109 C-36.89732422 101.34662109 -36.44357422 100.56287109 -35.97607422 99.75537109 C-34.27456309 97.00677619 -33.30588338 96.25116077 -30.35107422 95.13037109 C-30.35107422 95.79037109 -30.35107422 96.45037109 -30.35107422 97.13037109 C-29.42294922 97.74912109 -28.49482422 98.36787109 -27.53857422 99.00537109 C-24.6677227 100.91927211 -22.95340962 102.11421034 -21.35107422 105.13037109 C-21.44684218 108.00340998 -22.54791001 109.42223106 -24.16357422 111.81787109 C-31.92816434 123.57567898 -36.19047637 139.16997719 -33.35107422 153.13037109 C-33.21443359 153.92830078 -33.07779297 154.72623047 -32.93701172 155.54833984 C-31.95788325 161.03311881 -30.45230941 165.9727938 -28.35107422 171.13037109 C-27.69107422 171.13037109 -27.03107422 171.13037109 -26.35107422 171.13037109 C-26.13451172 172.05849609 -26.13451172 172.05849609 -25.91357422 173.00537109 C-25.41955196 175.16295432 -25.41955196 175.16295432 -24.35107422 177.13037109 C-23.36107422 177.13037109 -22.37107422 177.13037109 -21.35107422 177.13037109 C-21.35107422 177.79037109 -21.35107422 178.45037109 -21.35107422 179.13037109 C-18.62415612 180.59293768 -15.89415541 182.04965651 -13.16357422 183.50537109 C-12.39464844 183.91787109 -11.62572266 184.33037109 -10.83349609 184.75537109 C-5.34763332 187.67488605 -0.01260155 190.00298974 5.96142578 191.75537109 C6.84443359 192.01576172 7.72744141 192.27615234 8.63720703 192.54443359 C9.30107422 192.73779297 9.96494141 192.93115234 10.64892578 193.13037109 C10.36146484 192.55931641 10.07400391 191.98826172 9.77783203 191.39990234 C9.40529297 190.65095703 9.03275391 189.90201172 8.64892578 189.13037109 C8.30732422 188.45361328 7.96572266 187.77685547 7.61376953 187.07958984 C3.04469319 177.02067273 2.48684549 164.94077257 4.64892578 154.13037109 C6.61715464 152.16214223 9.99701287 152.46788728 12.64892578 152.13037109 C12.64892578 152.79037109 12.64892578 153.45037109 12.64892578 154.13037109 C15.28892578 154.46037109 17.92892578 154.79037109 20.64892578 155.13037109 C20.63152344 156.38140625 20.63152344 156.38140625 20.61376953 157.65771484 C20.58576859 161.14983254 20.60937919 164.63840715 20.64892578 168.13037109 C20.64119141 168.94892578 20.63345703 169.76748047 20.62548828 170.61083984 C20.90234575 177.51969209 24.40567521 182.82630788 28.64892578 188.13037109 C32.10818418 191.46327723 32.10818418 191.46327723 36.64892578 192.13037109 C36.64892578 192.79037109 36.64892578 193.45037109 36.64892578 194.13037109 C41.72232134 196.89767776 46.17701977 198.69213105 51.86376953 199.73583984 C53.64892578 200.13037109 53.64892578 200.13037109 54.64892578 201.13037109 C70.55162953 202.79423547 86.78444999 197.45499982 100.64892578 190.13037109 C100.64892578 189.47037109 100.64892578 188.81037109 100.64892578 188.13037109 C101.45330078 187.86224609 102.25767578 187.59412109 103.08642578 187.31787109 C103.93205078 186.92599609 104.77767578 186.53412109 105.64892578 186.13037109 C105.97892578 185.14037109 106.30892578 184.15037109 106.64892578 183.13037109 C109.61892578 183.13037109 112.58892578 183.13037109 115.64892578 183.13037109 C116.30892578 184.45037109 116.96892578 185.77037109 117.64892578 187.13037109 C118.97298567 189.13652243 120.30560924 191.13706268 121.64892578 193.13037109 C121.97892578 193.79037109 122.30892578 194.45037109 122.64892578 195.13037109 C121.98892578 195.13037109 121.32892578 195.13037109 120.64892578 195.13037109 C120.64892578 195.79037109 120.64892578 196.45037109 120.64892578 197.13037109 C119.53517578 197.50162109 119.53517578 197.50162109 118.39892578 197.88037109 C115.43102034 199.22941902 113.89359656 200.81087796 111.64892578 203.13037109 C110.65892578 203.46037109 109.66892578 203.79037109 108.64892578 204.13037109 C108.64892578 204.79037109 108.64892578 205.45037109 108.64892578 206.13037109 C108.13330078 206.23349609 107.61767578 206.33662109 107.08642578 206.44287109 C104.52961825 207.16402193 102.15241191 208.14578398 99.72314453 209.21630859 C99.03865234 209.51794922 98.35416016 209.81958984 97.64892578 210.13037109 C96.57771484 210.61505859 95.50650391 211.09974609 94.40283203 211.59912109 C75.72638446 219.57255611 51.83193353 220.63307371 32.14501953 216.57568359 C28.27977675 215.88610977 24.56458247 215.9998492 20.64892578 216.13037109 C20.64892578 215.47037109 20.64892578 214.81037109 20.64892578 214.13037109 C19.32892578 214.46037109 18.00892578 214.79037109 16.64892578 215.13037109 C15.65892578 219.09037109 15.65892578 219.09037109 14.64892578 223.13037109 C23.36846885 226.50455598 32.09144329 229.65464426 41.04052734 232.36645508 C45.6839324 233.7875869 50.16830362 235.42884696 54.63330078 237.33349609 C58.00372355 238.66598882 61.30973902 239.27413264 64.89892578 239.69287109 C66.13642578 239.83724609 67.37392578 239.98162109 68.64892578 240.13037109 C68.64892578 240.79037109 68.64892578 241.45037109 68.64892578 242.13037109 C69.36177734 242.31212891 70.07462891 242.49388672 70.80908203 242.68115234 C76.33074779 244.13031092 81.41369449 245.83421702 86.64892578 248.13037109 C93.0252718 250.40342037 99.49174715 252.3927791 105.96142578 254.38037109 C112.86396406 256.51242596 119.69866102 258.82582869 126.52392578 261.19287109 C127.47436768 261.52125977 128.42480957 261.84964844 129.40405273 262.18798828 C135.55666933 264.33633369 141.61931745 266.6580514 147.64892578 269.13037109 C147.05211885 278.54678188 145.69601752 287.77321679 144.14892578 297.06787109 C143.92065423 298.464289 143.69278759 299.86077317 143.46533203 301.25732422 C141.70015447 312.03803214 141.70015447 312.03803214 140.64892578 317.13037109 C128.37304641 318.98127254 116.29760404 319.51218797 103.89892578 319.69287109 C100.3415464 319.75226894 96.78428504 319.81676749 93.22705078 319.88427734 C92.36116333 319.90019928 91.49527588 319.91612122 90.60314941 319.93252563 C81.27470518 320.12378543 71.96387419 320.60820743 62.64892578 321.13037109 C62.45571599 324.86479911 62.94332136 327.32684891 64.48095703 330.72021484 C66.81271851 336.26033213 68.11205973 341.82300042 69.33642578 347.69287109 C69.75386306 349.65317685 70.17426824 351.6128538 70.59814453 353.57177734 C70.77692139 354.42457275 70.95569824 355.27736816 71.13989258 356.15600586 C71.4674804 358.11831955 71.4674804 358.11831955 72.64892578 359.13037109 C79.00298102 389.57386252 83.89478627 427.59840117 75.64892578 458.13037109 C94.53454531 452.32065109 94.53454531 452.32065109 111.57861328 442.66943359 C115.30302099 439.90072296 119.5402281 437.97777875 123.65283203 435.84912109 C126.17281772 434.40349697 127.7250058 433.22649379 129.64892578 431.13037109 C130.53580078 430.61474609 131.42267578 430.09912109 132.33642578 429.56787109 C133.09955078 429.09349609 133.86267578 428.61912109 134.64892578 428.13037109 C134.64892578 427.47037109 134.64892578 426.81037109 134.64892578 426.13037109 C135.23416016 426.02724609 135.81939453 425.92412109 136.42236328 425.81787109 C138.99813994 425.02254356 140.29660967 423.94218498 142.27392578 422.13037109 C145.48849797 419.210585 145.48849797 419.210585 147.64892578 418.13037109 C147.64892578 417.47037109 147.64892578 416.81037109 147.64892578 416.13037109 C148.52291016 415.72818359 148.52291016 415.72818359 149.41455078 415.31787109 C151.67679179 414.11556119 153.45468896 412.79211197 155.39892578 411.13037109 C156.31931641 410.35693359 156.31931641 410.35693359 157.25830078 409.56787109 C158.88068954 408.22413858 158.88068954 408.22413858 158.64892578 406.13037109 C159.24576172 405.88287109 159.84259766 405.63537109 160.45751953 405.38037109 C162.98761355 403.93718021 164.067449 402.51523341 165.71142578 400.13037109 C167.63745406 397.35116849 168.76096927 396.05567544 171.64892578 394.13037109 C171.64892578 393.47037109 171.64892578 392.81037109 171.64892578 392.13037109 C172.30892578 392.13037109 172.96892578 392.13037109 173.64892578 392.13037109 C173.64892578 391.47037109 173.64892578 390.81037109 173.64892578 390.13037109 C174.30892578 390.13037109 174.96892578 390.13037109 175.64892578 390.13037109 C177.237188 388.41539338 177.237188 388.41539338 178.77392578 386.25537109 C179.58216797 385.17642578 179.58216797 385.17642578 180.40673828 384.07568359 C181.8283221 382.23411103 181.8283221 382.23411103 181.64892578 380.13037109 C182.30892578 380.13037109 182.96892578 380.13037109 183.64892578 380.13037109 C185.02814149 378.09140069 186.29069264 376.06779139 187.52392578 373.94287109 C189.48664007 370.59580889 191.42971752 367.39622748 193.90673828 364.39208984 C195.95404559 362.21008325 195.95404559 362.21008325 195.64892578 359.13037109 C196.62146448 358.10364402 197.62643596 357.10736371 198.64892578 356.13037109 C199.59397705 354.66088293 200.48858553 353.15801119 201.33642578 351.63037109 C201.77341797 350.85693359 202.21041016 350.08349609 202.66064453 349.28662109 C203.85725314 347.07116253 203.85725314 347.07116253 203.64892578 344.13037109 C204.30892578 344.13037109 204.96892578 344.13037109 205.64892578 344.13037109 C205.64892578 342.48037109 205.64892578 340.83037109 205.64892578 339.13037109 C206.30892578 338.80037109 206.96892578 338.47037109 207.64892578 338.13037109 C208.73933697 336.08259623 209.74837516 333.99103733 210.71142578 331.88037109 C211.50226563 330.17107422 211.50226563 330.17107422 212.30908203 328.42724609 C213.4636289 325.58632028 214.08263805 323.11716302 214.64892578 320.13037109 C215.10634155 319.2319751 215.10634155 319.2319751 215.57299805 318.31542969 C217.71879518 313.95761612 218.8039835 309.15920902 220.14892578 304.50537109 C220.45701172 303.46251953 220.76509766 302.41966797 221.08251953 301.34521484 C223.54561141 292.8776758 225.66041548 284.52075952 226.21142578 275.69287109 C226.41299687 272.53766653 226.64508718 270.1418869 227.64892578 267.13037109 C227.74132116 265.46888626 227.7768383 263.80394383 227.77832031 262.13989258 C227.78147247 261.1255162 227.78462463 260.11113983 227.78787231 259.06602478 C227.78584808 257.97222 227.78382385 256.87841522 227.78173828 255.75146484 C227.78269501 254.62845474 227.78365173 253.50544464 227.78463745 252.34840393 C227.78531822 249.9737238 227.78347114 247.5990418 227.77929688 245.22436523 C227.77394222 241.57905931 227.77924797 237.93387632 227.78564453 234.28857422 C227.78498383 231.98453749 227.78370283 229.68050083 227.78173828 227.37646484 C227.78477463 225.73272133 227.78477463 225.73272133 227.78787231 224.05577087 C227.78472015 223.04454666 227.78156799 222.03332245 227.77832031 220.99145508 C227.77752472 220.09893539 227.77672913 219.20641571 227.77590942 218.28684998 C227.78803156 216.08036328 227.78803156 216.08036328 226.64892578 214.13037109 C226.49157682 212.34125518 226.37276908 210.54867097 226.27392578 208.75537109 C225.86188594 203.35378634 224.86913174 198.39427876 223.45751953 193.17333984 C222.6493795 190.13207855 221.98909409 187.08333941 221.33642578 184.00537109 C220.06893601 178.45926507 218.4353589 173.08887423 216.64892578 167.69287109 C216.39973389 166.93538574 216.15054199 166.17790039 215.89379883 165.39746094 C214.44402683 161.11419487 212.75532154 157.14477631 210.64892578 153.13037109 C208.90702746 149.15884293 207.23841075 145.16521755 205.64892578 141.13037109 C204.98892578 141.13037109 204.32892578 141.13037109 203.64892578 141.13037109 C203.64892578 139.81037109 203.64892578 138.49037109 203.64892578 137.13037109 C202.98892578 137.13037109 202.32892578 137.13037109 201.64892578 137.13037109 C201.50455078 136.36724609 201.36017578 135.60412109 201.21142578 134.81787109 C200.68566638 132.04864201 200.68566638 132.04864201 199.64892578 129.13037109 C198.98892578 129.13037109 198.32892578 129.13037109 197.64892578 129.13037109 C197.64892578 128.14037109 197.64892578 127.15037109 197.64892578 126.13037109 C196.98892578 126.13037109 196.32892578 126.13037109 195.64892578 126.13037109 C195.31892578 124.48037109 194.98892578 122.83037109 194.64892578 121.13037109 C193.98892578 121.13037109 193.32892578 121.13037109 192.64892578 121.13037109 C191.98892578 119.15037109 191.32892578 117.17037109 190.64892578 115.13037109 C189.98892578 115.13037109 189.32892578 115.13037109 188.64892578 115.13037109 C187.98892578 113.15037109 187.32892578 111.17037109 186.64892578 109.13037109 C185.98892578 109.13037109 185.32892578 109.13037109 184.64892578 109.13037109 C184.30861328 108.10943359 184.30861328 108.10943359 183.96142578 107.06787109 C182.33666432 103.4315002 180.32089321 100.10207846 177.64892578 97.13037109 C176.98892578 97.13037109 176.32892578 97.13037109 175.64892578 97.13037109 C175.38080078 96.32599609 175.11267578 95.52162109 174.83642578 94.69287109 C174.44455078 93.84724609 174.05267578 93.00162109 173.64892578 92.13037109 C172.65892578 91.80037109 171.66892578 91.47037109 170.64892578 91.13037109 C170.64892578 90.47037109 170.64892578 89.81037109 170.64892578 89.13037109 C169.98892578 89.13037109 169.32892578 89.13037109 168.64892578 89.13037109 C168.64892578 88.47037109 168.64892578 87.81037109 168.64892578 87.13037109 C167.98892578 87.13037109 167.32892578 87.13037109 166.64892578 87.13037109 C165.98892578 85.81037109 165.32892578 84.49037109 164.64892578 83.13037109 C163.98892578 83.13037109 163.32892578 83.13037109 162.64892578 83.13037109 C162.40142578 82.55287109 162.15392578 81.97537109 161.89892578 81.38037109 C160.4659259 78.8009713 158.86467902 77.06915517 156.64892578 75.13037109 C155.98892578 75.13037109 155.32892578 75.13037109 154.64892578 75.13037109 C154.43236328 74.56833984 154.21580078 74.00630859 153.99267578 73.42724609 C152.1982345 70.36000345 149.91000364 68.60376537 147.14892578 66.38037109 C146.16923828 65.58115234 145.18955078 64.78193359 144.18017578 63.95849609 C141.89909632 61.93520758 141.89909632 61.93520758 139.64892578 62.13037109 C139.64892578 61.47037109 139.64892578 60.81037109 139.64892578 60.13037109 C137.30955791 58.32571588 134.97171973 56.65199793 132.52392578 55.00537109 C131.44751831 54.27265991 131.44751831 54.27265991 130.34936523 53.52514648 C124.535801 49.6168304 118.56856798 46.08013852 112.44189453 42.68896484 C109.64892578 41.13037109 109.64892578 41.13037109 106.64892578 39.13037109 C104.99343047 38.74537218 103.32668248 38.40243975 101.64892578 38.13037109 C101.64892578 37.47037109 101.64892578 36.81037109 101.64892578 36.13037109 C98.27795195 34.6321605 96.44450459 34.13037109 92.64892578 34.13037109 C92.64892578 33.47037109 92.64892578 32.81037109 92.64892578 32.13037109 C89.27472405 30.83661242 85.89942495 29.54574049 82.52392578 28.25537109 C81.57259766 27.89056641 80.62126953 27.52576172 79.64111328 27.14990234 C68.93909164 23.04304577 68.93909164 23.04304577 57.64892578 22.13037109 C57.64892578 21.47037109 57.64892578 20.81037109 57.64892578 20.13037109 C56.72080078 20.17162109 55.79267578 20.21287109 54.83642578 20.25537109 C51.64892578 20.13037109 51.64892578 20.13037109 48.64892578 18.13037109 C33.24368305 13.9994511 16.98185486 13.7566959 1.14892578 13.81787109 C0.3004306 13.82050964 -0.54806458 13.82314819 -1.42227173 13.8258667 C-3.84667079 13.83837465 -6.27058782 13.86170631 -8.69482422 13.89208984 C-9.4249321 13.89964798 -10.15503998 13.90720612 -10.90727234 13.91499329 C-13.98014572 13.97270274 -16.41391148 14.15131685 -19.35107422 15.13037109 Z M-34.35107422 226.13037109 C-30.8081679 234.75839001 -27.13783167 243.59767501 -19.35107422 249.13037109 C-18.62919922 250.03787109 -17.90732422 250.94537109 -17.16357422 251.88037109 C-16.56544922 252.62287109 -15.96732422 253.36537109 -15.35107422 254.13037109 C-14.69107422 254.13037109 -14.03107422 254.13037109 -13.35107422 254.13037109 C-10.81263363 247.55350229 -8.69781808 241.06492062 -7.35107422 234.13037109 C-13.66166624 231.76689842 -19.96589637 229.57508219 -26.45263672 227.74365234 C-28.35107422 227.13037109 -28.35107422 227.13037109 -29.35107422 226.13037109 C-31.01724537 226.08973277 -32.68495517 226.08765009 -34.35107422 226.13037109 Z M8.64892578 240.13037109 C8.42229248 240.8510376 8.19565918 241.5717041 7.9621582 242.31420898 C6.92394641 245.6082753 5.88023551 248.90057455 4.83642578 252.19287109 C4.48 253.32660156 4.12357422 254.46033203 3.75634766 255.62841797 C1.96334074 261.27063238 0.10248521 266.74243943 -2.35107422 272.13037109 C-4.66351163 277.67475843 -6.75836181 283.2667776 -8.72607422 288.94287109 C-10.95126466 295.21386233 -13.54539155 301.20250889 -16.42529297 307.19775391 C-17.5139826 309.47045094 -18.58904941 311.74938098 -19.66357422 314.02880859 C-21.23877538 317.36744051 -22.81551273 320.70531786 -24.39794922 324.04052734 C-24.72633789 324.73283447 -25.05472656 325.4251416 -25.39306641 326.13842773 C-26.05213781 327.50880581 -26.74797494 328.86190851 -27.47314453 330.19848633 C-28.55793668 332.23190322 -28.55793668 332.23190322 -28.35107422 335.13037109 C-29.01107422 335.13037109 -29.67107422 335.13037109 -30.35107422 335.13037109 C-30.35107422 336.45037109 -30.35107422 337.77037109 -30.35107422 339.13037109 C-31.34107422 339.62537109 -31.34107422 339.62537109 -32.35107422 340.13037109 C-33.55129099 342.20399862 -34.68783186 344.3147692 -35.78857422 346.44287109 C-39.06148058 352.75540972 -39.06148058 352.75540972 -41.07373047 355.36083984 C-42.64372146 357.17204899 -42.64372146 357.17204899 -42.35107422 360.13037109 C-43.01107422 360.13037109 -43.67107422 360.13037109 -44.35107422 360.13037109 C-44.53669922 361.08943359 -44.53669922 361.08943359 -44.72607422 362.06787109 C-44.93232422 362.74849609 -45.13857422 363.42912109 -45.35107422 364.13037109 C-46.34107422 364.62537109 -46.34107422 364.62537109 -47.35107422 365.13037109 C-48.00320714 367.15500364 -48.00320714 367.15500364 -48.35107422 369.13037109 C-49.01107422 369.13037109 -49.67107422 369.13037109 -50.35107422 369.13037109 C-50.78419922 370.33693359 -50.78419922 370.33693359 -51.22607422 371.56787109 C-52.35107422 374.13037109 -52.35107422 374.13037109 -54.35107422 375.13037109 C-55.03594147 376.45444778 -55.69977625 377.7894635 -56.35107422 379.13037109 C-56.88732422 379.83162109 -57.42357422 380.53287109 -57.97607422 381.25537109 C-59.54819544 383.01165036 -59.54819544 383.01165036 -59.35107422 385.13037109 C-60.01107422 385.13037109 -60.67107422 385.13037109 -61.35107422 385.13037109 C-61.68107422 386.45037109 -62.01107422 387.77037109 -62.35107422 389.13037109 C-63.01107422 389.13037109 -63.67107422 389.13037109 -64.35107422 389.13037109 C-66.74927727 391.76721856 -66.74927727 391.76721856 -67.35107422 395.13037109 C-68.34107422 395.46037109 -69.33107422 395.79037109 -70.35107422 396.13037109 C-70.35107422 397.45037109 -70.35107422 398.77037109 -70.35107422 400.13037109 C-71.67107422 400.46037109 -72.99107422 400.79037109 -74.35107422 401.13037109 C-74.35107422 401.79037109 -74.35107422 402.45037109 -74.35107422 403.13037109 C-75.01107422 403.13037109 -75.67107422 403.13037109 -76.35107422 403.13037109 C-77.83056271 404.8539211 -77.83056271 404.8539211 -79.28857422 407.00537109 C-81.2505536 409.80533144 -82.44201565 411.19099871 -85.35107422 413.13037109 C-85.35107422 413.79037109 -85.35107422 414.45037109 -85.35107422 415.13037109 C-87.33107422 416.12037109 -87.33107422 416.12037109 -89.35107422 417.13037109 C-89.35107422 417.79037109 -89.35107422 418.45037109 -89.35107422 419.13037109 C-90.34107422 419.13037109 -91.33107422 419.13037109 -92.35107422 419.13037109 C-93.70791172 420.77795949 -95.03564143 422.44954031 -96.35107422 424.13037109 C-102.06902294 429.48934545 -102.06902294 429.48934545 -105.35107422 431.13037109 C-105.35107422 431.79037109 -105.35107422 432.45037109 -105.35107422 433.13037109 C-106.67107422 433.46037109 -107.99107422 433.79037109 -109.35107422 434.13037109 C-109.35107422 434.79037109 -109.35107422 435.45037109 -109.35107422 436.13037109 C-110.34107422 436.46037109 -111.33107422 436.79037109 -112.35107422 437.13037109 C-111.67772403 440.18414765 -111.67772403 440.18414765 -109.53857422 441.31787109 C-107.11504393 442.36249545 -107.11504393 442.36249545 -103.35107422 442.13037109 C-103.35107422 442.79037109 -103.35107422 443.45037109 -103.35107422 444.13037109 C-100.39729924 446.50017122 -100.39729924 446.50017122 -96.35107422 446.13037109 C-96.35107422 446.79037109 -96.35107422 447.45037109 -96.35107422 448.13037109 C-95.03107422 448.13037109 -93.71107422 448.13037109 -92.35107422 448.13037109 C-92.35107422 448.79037109 -92.35107422 449.45037109 -92.35107422 450.13037109 C-70.97525227 459.03441276 -48.66262583 467.67810228 -25.28466797 468.95458984 C-23.35107422 469.13037109 -23.35107422 469.13037109 -21.35107422 470.13037109 C-19.8832816 470.23006931 -18.41109963 470.26867765 -16.93994141 470.27563477 C-16.02428406 470.28201462 -15.10862671 470.28839447 -14.16522217 470.29496765 C-13.16952209 470.29608047 -12.17382202 470.2971933 -11.14794922 470.29833984 C-10.11857239 470.30166824 -9.08919556 470.30499664 -8.02862549 470.3084259 C-5.83956347 470.31349997 -3.65049368 470.31583408 -1.46142578 470.31567383 C1.84372324 470.317835 5.14852451 470.33591455 8.45361328 470.35498047 C22.82560182 470.39385146 36.07579094 469.54869984 50.02783203 465.81396484 C52.55582773 465.15465151 55.08281057 464.61760816 57.64892578 464.13037109 C57.70951172 463.52708984 57.77009766 462.92380859 57.83251953 462.30224609 C57.91630859 461.50302734 58.00009766 460.70380859 58.08642578 459.88037109 C58.20824219 458.69701172 58.20824219 458.69701172 58.33251953 457.48974609 C58.62652109 455.29743816 59.10659136 453.27179453 59.64892578 451.13037109 C61.68998574 440.44832736 61.84253147 429.7785979 61.83642578 418.94287109 C61.83724152 418.25075531 61.83805725 417.55863953 61.83889771 416.84555054 C61.89881506 407.92581093 61.89881506 407.92581093 60.64892578 399.13037109 C60.52347162 397.17328617 60.42192864 395.21460804 60.33642578 393.25537109 C59.61616247 371.35810818 59.61616247 371.35810818 52.64892578 352.13037109 C52.08697398 349.61177881 51.56915805 347.10163806 51.08642578 344.56787109 C50.87856445 343.50149414 50.87856445 343.50149414 50.66650391 342.41357422 C50.32387524 340.65317177 49.98596025 338.89185312 49.64892578 337.13037109 C49.31892578 337.13037109 48.98892578 337.13037109 48.64892578 337.13037109 C48.38337891 336.22673828 48.11783203 335.32310547 47.84423828 334.39208984 C47.31443359 332.62285156 47.31443359 332.62285156 46.77392578 330.81787109 C46.42587891 329.64611328 46.07783203 328.47435547 45.71923828 327.26708984 C44.76127125 324.02125384 44.76127125 324.02125384 42.64892578 321.13037109 C40.41651115 320.57884658 40.41651115 320.57884658 37.81689453 320.50537109 C36.85332031 320.43833984 35.88974609 320.37130859 34.89697266 320.30224609 C33.38200195 320.21716797 33.38200195 320.21716797 31.83642578 320.13037109 C19.66589412 319.4389529 19.66589412 319.4389529 15.64892578 316.13037109 C13.32642455 312.92310749 13.24443038 310.01352695 13.64892578 306.13037109 C15.02413471 302.92155025 17.12228336 301.64245661 20.21142578 300.25537109 C28.59841051 297.72137243 39.66516959 299.44977244 47.66064453 302.73193359 C54.63506363 305.17410883 62.19524015 304.20486874 69.46142578 303.88037109 C71.08205033 303.820158 72.70273995 303.76167361 74.32348633 303.70483398 C77.70180239 303.58491839 81.07969197 303.45715611 84.45751953 303.32421875 C92.15314047 303.02819144 99.85158741 302.83363178 107.55014038 302.63171387 C111.3917802 302.53000009 115.23323782 302.42189895 119.07470703 302.31396484 C120.98376831 302.26067017 120.98376831 302.26067017 122.93139648 302.20629883 C123.82818115 302.18124268 124.72496582 302.15618652 125.64892578 302.13037109 C127.00785483 296.96872462 128.06059007 291.92943638 128.77392578 286.63037109 C129.02529297 284.78958984 129.02529297 284.78958984 129.28173828 282.91162109 C129.40291016 281.99380859 129.52408203 281.07599609 129.64892578 280.13037109 C129.01913818 279.93403076 128.38935059 279.73769043 127.74047852 279.53540039 C124.85459434 278.63334621 121.97051244 277.72565518 119.08642578 276.81787109 C118.09578125 276.50914062 117.10513672 276.20041016 116.08447266 275.88232422 C110.79229407 274.2120353 105.7476702 272.32927528 100.64892578 270.13037109 C96.73221977 268.73386608 92.78574228 267.43132241 88.83642578 266.13037109 C87.80710937 265.78748047 86.77779297 265.44458984 85.71728516 265.09130859 C80.09825042 263.22895932 74.4619006 261.45991489 68.78637695 259.77832031 C66.22682683 259.00241557 63.71731925 258.12706818 61.21142578 257.19287109 C60.29748047 256.85513672 59.38353516 256.51740234 58.44189453 256.16943359 C57.52021484 255.82654297 56.59853516 255.48365234 55.64892578 255.13037109 C43.06351253 250.4963912 43.06351253 250.4963912 30.21142578 246.69287109 C25.63604741 245.48174153 21.36830377 243.89539575 17.03564453 241.99755859 C14.26552284 240.99106593 11.5555997 240.5849045 8.64892578 240.13037109 Z " fill="#FFFFFF" transform="translate(237.35107421875,-0.13037109375)"/>
<path d="" fill="#FFFFFF" transform="translate(0,0)"/>
<path d="M0 0 C2 1 2 1 2 1 Z " fill="#FFFFFF" transform="translate(170,476)"/>
<path d="" fill="#FFFFFF" transform="translate(0,0)"/>
<path d="" fill="#FFFFFF" transform="translate(0,0)"/>
<path d="M0 0 C2 1 2 1 2 1 Z " fill="#FFFFFF" transform="translate(406,392)"/>
<path d="M0 0 C2 1 2 1 2 1 Z " fill="#FFFFFF" transform="translate(154,380)"/>
<path d="" fill="#FFFFFF" transform="translate(0,0)"/>
<path d="M0 0 C2 1 2 1 2 1 Z " fill="#FFFFFF" transform="translate(208,336)"/>
<path d="" fill="#FFFFFF" transform="translate(0,0)"/>
<path d="" fill="#FFFFFF" transform="translate(0,0)"/>
<path d="" fill="#FFFFFF" transform="translate(0,0)"/>
<path d="" fill="#FFFFFF" transform="translate(0,0)"/>
<path d="M0 0 C2 1 2 1 2 1 Z " fill="#FFFFFF" transform="translate(334,212)"/>
<path d="M0 0 C2 1 2 1 2 1 Z " fill="#FFFFFF" transform="translate(234,211)"/>
<path d="M0 0 C2 1 2 1 2 1 Z " fill="#FFFFFF" transform="translate(179,177)"/>
<path d="" fill="#FFFFFF" transform="translate(0,0)"/>
<path d="" fill="#FFFFFF" transform="translate(0,0)"/>
<path d="" fill="#FFFFFF" transform="translate(0,0)"/>
<path d="" fill="#FFFFFF" transform="translate(0,0)"/>
<path d="M0 0 C2 1 2 1 2 1 Z " fill="#FFFFFF" transform="translate(78,85)"/>
<path d="M0 0 C2 1 2 1 2 1 Z " fill="#FFFFFF" transform="translate(80,83)"/>
<path d="M0 0 C2 1 2 1 2 1 Z " fill="#FFFFFF" transform="translate(88,75)"/>
<path d="M0 0 C2 1 2 1 2 1 Z " fill="#FFFFFF" transform="translate(95,69)"/>
<path d="M0 0 C2 1 2 1 2 1 Z " fill="#FFFFFF" transform="translate(74,62)"/>
<path d="M0 0 C2 1 2 1 2 1 Z " fill="#FFFFFF" transform="translate(144,38)"/>
<path d="" fill="#FFFFFF" transform="translate(0,0)"/>
<path d="" fill="#FFFFFF" transform="translate(0,0)"/>
<path d="" fill="#FFFFFF" transform="translate(0,0)"/>
<path d="" fill="#FFFFFF" transform="translate(0,0)"/>
<path d="" fill="#FFFFFF" transform="translate(0,0)"/>
<path d="" fill="#FFFFFF" transform="translate(0,0)"/>
<path d="" fill="#FFFFFF" transform="translate(0,0)"/>
<path d="" fill="#FFFFFF" transform="translate(0,0)"/>
<path d="" fill="#FFFFFF" transform="translate(0,0)"/>
<path d="" fill="#FFFFFF" transform="translate(0,0)"/>
<path d="" fill="#FFFFFF" transform="translate(0,0)"/>
<path d="" fill="#FFFFFF" transform="translate(0,0)"/>
<path d="" fill="#FFFFFF" transform="translate(0,0)"/>
<path d="" fill="#FFFFFF" transform="translate(0,0)"/>
<path d="" fill="#FFFFFF" transform="translate(0,0)"/>
<path d="" fill="#FFFFFF" transform="translate(0,0)"/>
<path d="" fill="#FFFFFF" transform="translate(0,0)"/>
<path d="" fill="#FFFFFF" transform="translate(0,0)"/>
<path d="" fill="#FFFFFF" transform="translate(0,0)"/>
<path d="" fill="#FFFFFF" transform="translate(0,0)"/>
<path d="" fill="#FFFFFF" transform="translate(0,0)"/>
<path d="" fill="#FFFFFF" transform="translate(0,0)"/>
<path d="" fill="#FFFFFF" transform="translate(0,0)"/>
<path d="" fill="#FFFFFF" transform="translate(0,0)"/>
<path d="" fill="#FFFFFF" transform="translate(0,0)"/>
<path d="" fill="#FFFFFF" transform="translate(0,0)"/>
<path d="" fill="#FFFFFF" transform="translate(0,0)"/>
<path d="" fill="#FFFFFF" transform="translate(0,0)"/>
<path d="" fill="#FFFFFF" transform="translate(0,0)"/>
<path d="" fill="#FFFFFF" transform="translate(0,0)"/>
<path d="" fill="#FFFFFF" transform="translate(0,0)"/>
<path d="" fill="#FFFFFF" transform="translate(0,0)"/>
<path d="" fill="#FFFFFF" transform="translate(0,0)"/>
<path d="" fill="#FFFFFF" transform="translate(0,0)"/>
<path d="" fill="#FFFFFF" transform="translate(0,0)"/>
<path d="" fill="#FFFFFF" transform="translate(0,0)"/>
<path d="" fill="#FFFFFF" transform="translate(0,0)"/>
<path d="" fill="#FFFFFF" transform="translate(0,0)"/>
<path d="" fill="#FFFFFF" transform="translate(0,0)"/>
<path d="" fill="#FFFFFF" transform="translate(0,0)"/>
<path d="" fill="#FFFFFF" transform="translate(0,0)"/>
<path d="" fill="#FFFFFF" transform="translate(0,0)"/>
<path d="" fill="#FFFFFF" transform="translate(0,0)"/>
<path d="" fill="#FFFFFF" transform="translate(0,0)"/>
<path d="" fill="#FFFFFF" transform="translate(0,0)"/>
<path d="" fill="#FFFFFF" transform="translate(0,0)"/>
<path d="" fill="#FFFFFF" transform="translate(0,0)"/>
<path d="" fill="#FFFFFF" transform="translate(0,0)"/>
<path d="" fill="#FFFFFF" transform="translate(0,0)"/>
<path d="" fill="#FFFFFF" transform="translate(0,0)"/>
<path d="" fill="#FFFFFF" transform="translate(0,0)"/>
<path d="" fill="#FFFFFF" transform="translate(0,0)"/>
<path d="" fill="#FFFFFF" transform="translate(0,0)"/>
<path d="" fill="#FFFFFF" transform="translate(0,0)"/>
<path d="" fill="#FFFFFF" transform="translate(0,0)"/>
<path d="" fill="#FFFFFF" transform="translate(0,0)"/>
<path d="" fill="#FFFFFF" transform="translate(0,0)"/>
<path d="" fill="#FFFFFF" transform="translate(0,0)"/>
<path d="" fill="#FFFFFF" transform="translate(0,0)"/>
<path d="" fill="#FFFFFF" transform="translate(0,0)"/>
<path d="" fill="#FFFFFF" transform="translate(0,0)"/>
<path d="" fill="#FFFFFF" transform="translate(0,0)"/>
<path d="" fill="#FFFFFF" transform="translate(0,0)"/>
<path d="" fill="#FFFFFF" transform="translate(0,0)"/>
<path d="" fill="#FFFFFF" transform="translate(0,0)"/>
<path d="" fill="#FFFFFF" transform="translate(0,0)"/>
<path d="" fill="#FFFFFF" transform="translate(0,0)"/>
<path d="" fill="#FFFFFF" transform="translate(0,0)"/>
<path d="" fill="#FFFFFF" transform="translate(0,0)"/>
<path d="" fill="#FFFFFF" transform="translate(0,0)"/>
<path d="" fill="#FFFFFF" transform="translate(0,0)"/>
<path d="" fill="#FFFFFF" transform="translate(0,0)"/>
<path d="" fill="#FFFFFF" transform="translate(0,0)"/>
<path d="" fill="#FFFFFF" transform="translate(0,0)"/>
<path d="" fill="#FFFFFF" transform="translate(0,0)"/>
<path d="" fill="#FFFFFF" transform="translate(0,0)"/>
<path d="" fill="#FFFFFF" transform="translate(0,0)"/>
<path d="" fill="#FFFFFF" transform="translate(0,0)"/>
<path d="" fill="#FFFFFF" transform="translate(0,0)"/>
<path d="" fill="#FFFFFF" transform="translate(0,0)"/>
<path d="" fill="#FFFFFF" transform="translate(0,0)"/>
<path d="" fill="#FFFFFF" transform="translate(0,0)"/>
<path d="" fill="#FFFFFF" transform="translate(0,0)"/>
<path d="" fill="#FFFFFF" transform="translate(0,0)"/>
<path d="" fill="#FFFFFF" transform="translate(0,0)"/>
<path d="" fill="#FFFFFF" transform="translate(0,0)"/>
<path d="" fill="#FFFFFF" transform="translate(0,0)"/>
<path d="" fill="#FFFFFF" transform="translate(0,0)"/>
<path d="" fill="#FFFFFF" transform="translate(0,0)"/>
<path d="" fill="#FFFFFF" transform="translate(0,0)"/>
<path d="" fill="#FFFFFF" transform="translate(0,0)"/>
<path d="" fill="#FFFFFF" transform="translate(0,0)"/>
<path d="" fill="#FFFFFF" transform="translate(0,0)"/>
<path d="" fill="#FFFFFF" transform="translate(0,0)"/>
<path d="" fill="#FFFFFF" transform="translate(0,0)"/>
<path d="" fill="#FFFFFF" transform="translate(0,0)"/>
<path d="" fill="#FFFFFF" transform="translate(0,0)"/>
<path d="" fill="#FFFFFF" transform="translate(0,0)"/>
<path d="" fill="#FFFFFF" transform="translate(0,0)"/>
<path d="" fill="#FFFFFF" transform="translate(0,0)"/>
<path d="" fill="#FFFFFF" transform="translate(0,0)"/>
<path d="" fill="#FFFFFF" transform="translate(0,0)"/>
<path d="" fill="#FFFFFF" transform="translate(0,0)"/>
<path d="" fill="#FFFFFF" transform="translate(0,0)"/>
<path d="" fill="#FFFFFF" transform="translate(0,0)"/>
<path d="" fill="#FFFFFF" transform="translate(0,0)"/>
<path d="" fill="#FFFFFF" transform="translate(0,0)"/>
<path d="" fill="#FFFFFF" transform="translate(0,0)"/>
<path d="" fill="#FFFFFF" transform="translate(0,0)"/>
<path d="" fill="#FFFFFF" transform="translate(0,0)"/>
<path d="" fill="#FFFFFF" transform="translate(0,0)"/>
<path d="" fill="#FFFFFF" transform="translate(0,0)"/>
<path d="" fill="#FFFFFF" transform="translate(0,0)"/>
<path d="" fill="#FFFFFF" transform="translate(0,0)"/>
<path d="" fill="#FFFFFF" transform="translate(0,0)"/>
<path d="" fill="#FFFFFF" transform="translate(0,0)"/>
<path d="" fill="#FFFFFF" transform="translate(0,0)"/>
<path d="" fill="#FFFFFF" transform="translate(0,0)"/>
<path d="" fill="#FFFFFF" transform="translate(0,0)"/>
<path d="" fill="#FFFFFF" transform="translate(0,0)"/>
<path d="" fill="#FFFFFF" transform="translate(0,0)"/>
<path d="" fill="#FFFFFF" transform="translate(0,0)"/>
<path d="" fill="#FFFFFF" transform="translate(0,0)"/>
<path d="" fill="#FFFFFF" transform="translate(0,0)"/>
<path d="" fill="#FFFFFF" transform="translate(0,0)"/>
<path d="" fill="#FFFFFF" transform="translate(0,0)"/>
<path d="" fill="#FFFFFF" transform="translate(0,0)"/>
<path d="" fill="#FFFFFF" transform="translate(0,0)"/>
<path d="" fill="#FFFFFF" transform="translate(0,0)"/>
<path d="" fill="#FFFFFF" transform="translate(0,0)"/>
<path d="" fill="#FFFFFF" transform="translate(0,0)"/>
<path d="" fill="#FFFFFF" transform="translate(0,0)"/>
<path d="" fill="#FFFFFF" transform="translate(0,0)"/>
<path d="" fill="#FFFFFF" transform="translate(0,0)"/>
<path d="" fill="#FFFFFF" transform="translate(0,0)"/>
<path d="" fill="#FFFFFF" transform="translate(0,0)"/>
<path d="" fill="#FFFFFF" transform="translate(0,0)"/>
<path d="" fill="#FFFFFF" transform="translate(0,0)"/>
<path d="" fill="#FFFFFF" transform="translate(0,0)"/>
<path d="" fill="#FFFFFF" transform="translate(0,0)"/>
<path d="" fill="#FFFFFF" transform="translate(0,0)"/>
<path d="" fill="#FFFFFF" transform="translate(0,0)"/>
<path d="" fill="#FFFFFF" transform="translate(0,0)"/>
<path d="" fill="#FFFFFF" transform="translate(0,0)"/>
<path d="" fill="#FFFFFF" transform="translate(0,0)"/>
<path d="" fill="#FFFFFF" transform="translate(0,0)"/>
<path d="" fill="#FFFFFF" transform="translate(0,0)"/>
<path d="" fill="#FFFFFF" transform="translate(0,0)"/>
<path d="" fill="#FFFFFF" transform="translate(0,0)"/>
</svg>
